<svg xmlns="http://www.w3.org/2000/svg" viewBox="0 0 300 78">
<text x="0" y="42" font-family="Georgia,serif" font-size="42" font-style="italic" fill="currentColor">Aevion</text>
<path d="M171 11c-9 0-15 7-14 17 1 10 5 14 8 26 1 6 6 8 9 2l4-10c1-4 5-4 6 0l4 10c3 6 8 4 9-2 3-12 7-16 8-26 1-10-5-17-14-17-5 0-9 3-10 4-2-1-6-4-10-4Z" fill="none" stroke="currentColor" stroke-width="2.2"/>
<text x="2" y="66" font-family="Arial,sans-serif" font-size="11" font-weight="700" letter-spacing="5" fill="currentColor">DENTAL STUDIO</text>
</svg>